<?xml version="1.0" standalone="no"?>
<!DOCTYPE svg PUBLIC "-//W3C//DTD SVG 20010904//EN"
 "http://www.w3.org/TR/2001/REC-SVG-20010904/DTD/svg10.dtd">
<svg version="1.0" xmlns="http://www.w3.org/2000/svg"
 width="291.000000pt" height="173.000000pt" viewBox="0 0 291.000000 173.000000"
 preserveAspectRatio="xMidYMid meet">

<g transform="translate(0.000000,173.000000) scale(0.100000,-0.100000)"
fill="#000000" stroke="none">
<path d="M707 1715 c-231 -44 -449 -192 -572 -390 -273 -438 -111 -1012 350
-1235 129 -63 194 -80 332 -87 221 -11 403 42 567 166 l66 50 66 -50 c82 -62
155 -99 264 -134 114 -37 296 -46 421 -21 330 67 589 313 675 641 28 106 26
323 -4 428 -45 157 -118 285 -226 393 -305 304 -784 338 -1133 80 l-63 -46
-62 46 c-146 107 -306 163 -488 170 -76 2 -142 -1 -193 -11z m-164 -707 c4
-46 7 -108 7 -138 l1 -55 59 135 59 135 85 3 c77 2 86 1 86 -15 0 -25 -77
-413 -83 -419 -3 -3 -27 -4 -54 -2 l-49 3 28 145 c15 80 27 149 25 153 -1 5
-32 -60 -69 -145 l-66 -153 -49 -3 -50 -3 -6 68 c-4 37 -7 100 -7 138 0 119
-14 101 -44 -55 l-28 -150 -50 0 c-43 0 -50 3 -46 18 3 9 22 108 43 220 l39
202 81 0 82 0 6 -82z m1424 37 c-6 -43 -5 -45 18 -45 26 0 30 -13 19 -57 -5
-17 -14 -23 -34 -23 -26 0 -28 -3 -42 -82 -8 -46 -13 -89 -10 -95 2 -7 17 -13
34 -13 28 0 29 -1 22 -37 -4 -21 -8 -39 -9 -41 -1 -1 -24 -5 -51 -8 -59 -6
-95 10 -105 48 -6 22 30 263 56 376 5 19 12 22 57 22 l51 0 -6 -45z m-867 -50
c57 -29 61 -62 30 -230 -11 -60 -20 -110 -20 -112 0 -2 -20 -3 -45 -3 -32 0
-45 4 -45 14 0 11 -8 10 -37 -5 -65 -33 -137 -17 -161 36 -41 90 33 174 162
181 63 3 77 14 55 41 -11 13 -28 15 -91 10 -43 -3 -78 -2 -78 3 0 42 14 69 39
73 67 10 163 6 191 -8z m347 -5 c44 -27 54 -51 51 -123 l-3 -62 -108 -3 -108
-3 3 -27 c4 -37 41 -54 103 -48 28 3 60 8 73 12 22 6 23 5 16 -32 -3 -22 -11
-43 -16 -49 -5 -5 -48 -10 -96 -10 -73 0 -93 4 -123 23 -106 65 -85 250 36
323 41 26 129 25 172 -1z m346 -17 c-3 -21 -8 -40 -10 -42 -2 -3 -27 -4 -56
-2 -39 2 -57 -2 -67 -14 -16 -20 -7 -30 52 -60 52 -26 70 -57 64 -108 -6 -52
-37 -83 -98 -97 -51 -13 -178 -6 -178 10 0 4 3 22 6 39 l7 32 53 -7 c112 -14
143 26 55 71 -79 40 -100 89 -65 156 21 42 65 58 161 59 l82 0 -6 -37z m479
12 c-2 -11 -10 -35 -17 -52 -11 -27 -20 -33 -44 -33 -43 0 -60 -36 -91 -192
l-11 -58 -55 0 c-51 0 -54 1 -49 23 3 12 18 90 33 172 l27 150 48 3 c42 3 47
1 47 -18 0 -21 1 -21 31 5 39 32 86 32 81 0z m279 2 c114 -76 81 -284 -54
-334 -49 -18 -137 -16 -177 5 -19 9 -45 33 -58 52 -21 30 -23 45 -20 106 6
128 77 194 209 194 52 0 73 -5 100 -23z m104 -313 c0 -21 -31 -32 -47 -16 -17
17 -2 39 24 37 15 -1 23 -8 23 -21z"/>
<path d="M950 797 c-18 -9 -25 -21 -25 -42 0 -26 4 -30 31 -33 25 -2 37 3 53
24 30 38 28 64 -6 64 -16 0 -39 -6 -53 -13z"/>
<path d="M1310 910 c-32 -32 -24 -40 40 -40 51 0 60 3 60 18 0 43 -64 58 -100
22z"/>
<path d="M2401 909 c-49 -46 -57 -135 -15 -168 41 -32 96 2 115 71 23 88 -41
151 -100 97z"/>
<path d="M2610 678 c0 -11 8 -18 20 -18 12 0 20 7 20 18 0 14 -2 15 -10 2 -9
-13 -11 -13 -20 0 -8 13 -10 12 -10 -2z"/>
<path d="M2790 395 c-11 -13 -11 -19 3 -32 21 -21 49 -9 45 19 -4 28 -30 35
-48 13z m40 -15 c0 -21 -24 -28 -35 -10 -8 14 3 30 21 30 8 0 14 -9 14 -20z"/>
<path d="M2800 380 c0 -5 5 -10 10 -10 6 0 10 5 10 10 0 6 -4 10 -10 10 -5 0
-10 -4 -10 -10z"/>
</g>
</svg>
