<svg width="48" height="48" viewBox="0 0 48 48" fill="none" xmlns="http://www.w3.org/2000/svg">
<path d="M24 4L29.253 7.832L35.756 7.82L37.753 14.008L43.021 17.82L41 24L43.021 30.18L37.753 33.992L35.756 40.18L29.253 40.168L24 44L18.747 40.168L12.244 40.18L10.247 33.992L4.979 30.18L7 24L4.979 17.82L10.247 14.008L12.244 7.82L18.747 7.832L24 4Z" fill="white" stroke="#1B54DD" stroke-width="2" stroke-linecap="round" stroke-linejoin="round"/>
<path fill-rule="evenodd" clip-rule="evenodd" d="M16.2956 15.7956C16.5487 15.5425 16.892 15.4003 17.25 15.4003C17.608 15.4003 17.9513 15.5425 18.2045 15.7956L24 21.5911L29.7956 15.7956C29.9201 15.6666 30.0691 15.5638 30.2338 15.493C30.3985 15.4223 30.5756 15.385 30.7549 15.3835C30.9341 15.3819 31.1119 15.4161 31.2778 15.484C31.4437 15.5518 31.5944 15.6521 31.7212 15.7788C31.848 15.9056 31.9482 16.0563 32.0161 16.2222C32.084 16.3881 32.1181 16.5659 32.1166 16.7452C32.115 16.9244 32.0778 17.1016 32.007 17.2663C31.9362 17.431 31.8334 17.5799 31.7045 17.7045L25.9089 23.5L31.7045 29.2956C31.9504 29.5502 32.0864 29.8912 32.0834 30.2452C32.0803 30.5991 31.9383 30.9377 31.688 31.188C31.4377 31.4383 31.0991 31.5803 30.7452 31.5834C30.3912 31.5864 30.0502 31.4504 29.7956 31.2045L24 25.4089L18.2045 31.2045C17.9498 31.4504 17.6088 31.5864 17.2549 31.5834C16.9009 31.5803 16.5623 31.4383 16.312 31.188C16.0617 30.9377 15.9197 30.5991 15.9167 30.2452C15.9136 29.8912 16.0496 29.5502 16.2956 29.2956L22.0911 23.5L16.2956 17.7045C16.0425 17.4513 15.9003 17.108 15.9003 16.75C15.9003 16.392 16.0425 16.0487 16.2956 15.7956Z" fill="#E62929"/>
</svg>
