<svg width="20" height="20" viewBox="0 0 20 20" fill="none" xmlns="http://www.w3.org/2000/svg">
<path d="M6.2896 18.126C13.8368 18.126 17.9648 11.8732 17.9648 6.45084C17.9648 6.27324 17.9648 6.09644 17.9528 5.92044C18.7559 5.33957 19.4491 4.62034 20 3.79644C19.2511 4.12828 18.4567 4.3459 17.6432 4.44204C18.4998 3.92923 19.1409 3.12266 19.4472 2.17244C18.6417 2.6504 17.7605 2.98725 16.8416 3.16844C16.2229 2.51059 15.4047 2.07497 14.5135 1.92901C13.6223 1.78305 12.7079 1.93487 11.9116 2.36098C11.1154 2.7871 10.4819 3.46375 10.109 4.28623C9.73605 5.10871 9.64462 6.03116 9.8488 6.91084C8.2174 6.82905 6.62144 6.4051 5.16451 5.66651C3.70759 4.92792 2.42227 3.89119 1.392 2.62364C0.867274 3.52697 0.70656 4.59633 0.942583 5.61399C1.17861 6.63165 1.79362 7.5211 2.6624 8.10124C2.00939 8.08189 1.37062 7.90573 0.8 7.58764C0.8 7.60444 0.8 7.62204 0.8 7.63964C0.800259 8.58701 1.12821 9.50514 1.72823 10.2383C2.32824 10.9714 3.16338 11.4744 4.092 11.662C3.4879 11.8268 2.85406 11.8509 2.2392 11.7324C2.50141 12.5478 3.01189 13.2608 3.69926 13.7717C4.38662 14.2826 5.21649 14.566 6.0728 14.582C4.61979 15.724 2.82485 16.3439 0.9768 16.342C0.650323 16.3414 0.324163 16.3216 0 16.2828C1.87651 17.4871 4.05993 18.1258 6.2896 18.1228" fill="#262626"/>
</svg>
