<svg width="48" height="48" viewBox="0 0 48 48" fill="none" xmlns="http://www.w3.org/2000/svg">
<path d="M24 4L29.253 7.832L35.756 7.82L37.753 14.008L43.021 17.82L41 24L43.021 30.18L37.753 33.992L35.756 40.18L29.253 40.168L24 44L18.747 40.168L12.244 40.18L10.247 33.992L4.979 30.18L7 24L4.979 17.82L10.247 14.008L12.244 7.82L18.747 7.832L24 4Z" fill="white" stroke="#1B54DD" stroke-width="2" stroke-linecap="round" stroke-linejoin="round"/>
<path d="M21.8209 17.2313C21.7974 16.9966 21.8233 16.7597 21.8969 16.5357C21.9706 16.3116 22.0904 16.1055 22.2486 15.9307C22.4068 15.7558 22.5999 15.616 22.8154 15.5203C23.031 15.4247 23.2642 15.3752 23.5 15.3752C23.7358 15.3752 23.969 15.4247 24.1846 15.5203C24.4001 15.616 24.5932 15.7558 24.7514 15.9307C24.9096 16.1055 25.0294 16.3116 25.1031 16.5357C25.1767 16.7597 25.2026 16.9966 25.1791 17.2313L24.5243 27.9469C24.499 28.201 24.3802 28.4366 24.1909 28.608C24.0016 28.7794 23.7554 28.8743 23.5 28.8743C23.2446 28.8743 22.9984 28.7794 22.8091 28.608C22.6198 28.4366 22.501 28.201 22.4757 27.9469L21.8209 17.2313ZM21.8125 32.25C21.8125 31.8025 21.9903 31.3733 22.3068 31.0568C22.6232 30.7403 23.0524 30.5625 23.5 30.5625C23.9476 30.5625 24.3768 30.7403 24.6932 31.0568C25.0097 31.3733 25.1875 31.8025 25.1875 32.25C25.1875 32.6976 25.0097 33.1268 24.6932 33.4433C24.3768 33.7597 23.9476 33.9375 23.5 33.9375C23.0524 33.9375 22.6232 33.7597 22.3068 33.4433C21.9903 33.1268 21.8125 32.6976 21.8125 32.25Z" fill="#FF8038"/>
</svg>
